<?xml version="1.0" standalone="no"?>
<svg width="3456" height="2304" xmlns="http://www.w3.org/2000/svg" id="svgvm3"><g transform="translate(5,5)" style="font-family: sans-serif;"><g><g transform="translate(0, 0)"><g transform="translate(0,5)"><rect class="header-box" width="1109.728813559322" height="86" stroke="black" fill="white" rx="5"/><rect class="label-cover" x="8" y="-11.666666984558105" width="37.98698043823242" height="20" fill="white" rx="5"/><text class="header-box-label" x="10" font-size="12" y="3">about</text><g class="header-box-content" transform="translate(5, 0)"><g transform="translate(0, 4.095238095238102)"><text font-size="12"><tspan x="4" y="42.4047619047619">ics_attack_2023_5</tspan></text></g></g></g></g><g transform="translate(1168.135593220339, 0)"><g transform="translate(0,5)"><rect class="header-box" width="1109.728813559322" height="86" stroke="black" fill="white" rx="5"/><rect class="label-cover" x="8" y="-11.666666984558105" width="47.770835876464844" height="20" fill="white" rx="5"/><text class="header-box-label" x="10" font-size="12" y="3">domain</text><g class="header-box-content" transform="translate(5, 0)"><g transform="translate(0, 4.095238095238102)"><text font-size="12"><tspan x="4" y="42.4047619047619">ICS ATT&amp;CK v13</tspan></text></g></g></g></g><g transform="translate(2336.271186440678, 0)"><g transform="translate(0,5)"><rect class="header-box" width="1109.728813559322" height="86" stroke="black" fill="white" rx="5"/><rect class="label-cover" x="8" y="-11.666666984558105" width="59.114585876464844" height="20" fill="white" rx="5"/><text class="header-box-label" x="10" font-size="12" y="3">platforms</text><g class="header-box-content" transform="translate(5, 0)"><g transform="translate(0, 4.095238095238102)"><text font-size="12"><tspan x="4" y="35.1547619047619">Field Controller/RTU/PLC/IED, Device Configuration/Parameters, Human-Machine Interface, Control</tspan><tspan x="4" y="49.6547619047619">Server, Data Historian, Engineering Workstation, Safety Instrumented System/Protection Relay, None, Input/Output Server, Windows</tspan></text></g></g></g></g></g><g transform="translate(0,97)"><g><g class="tactic initial-access" transform="translate(0, 0)"><g class="techniques"><g class="technique T0817" transform="translate(0, 146.53333333333333)"><rect class="cell" height="146.53333333333333" width="260.6218487394958" fill="#c7e9c0" stroke="#6B7279"/><polygon class="sidebar" transform="translate(0, 146.53333333333333)" points="0,0 12,0 12,0" fill="#6B7279" visibility="hidden"/><text font-size="12" fill="black"><tspan x="4" y="76.76666666666667">T0817: Drive-by Compromise</tspan></text></g><g class="technique T0819" transform="translate(0, 293.06666666666666)"><rect class="cell" height="146.53333333333333" width="260.6218487394958" fill="#c7e9c0" stroke="#6B7279"/><polygon class="sidebar" transform="translate(0, 146.53333333333333)" points="0,0 12,0 12,0" fill="#6B7279" visibility="hidden"/><text font-size="12" fill="black"><tspan x="4" y="69.51666666666667">T0819: Exploit</tspan><tspan x="4" y="84.01666666666667">Public-Facing Application</tspan></text></g><g class="technique T0866" transform="translate(0, 439.6)"><rect class="cell" height="146.53333333333333" width="260.6218487394958" fill="#c7e9c0" stroke="#6B7279"/><polygon class="sidebar" transform="translate(0, 146.53333333333333)" points="0,0 12,0 12,0" fill="#6B7279" visibility="hidden"/><text font-size="12" fill="black"><tspan x="4" y="69.51666666666667">T0866: Exploitation</tspan><tspan x="4" y="84.01666666666667">of Remote Services</tspan></text></g><g class="technique T0822" transform="translate(0, 586.1333333333333)"><rect class="cell" height="146.53333333333333" width="260.6218487394958" fill="#c7e9c0" stroke="#6B7279"/><polygon class="sidebar" transform="translate(0, 146.53333333333333)" points="0,0 12,0 12,0" fill="#6B7279" visibility="hidden"/><text font-size="12" fill="black"><tspan x="4" y="69.51666666666667">T0822:</tspan><tspan x="4" y="84.01666666666667">External Remote Services</tspan></text></g><g class="technique T0883" transform="translate(0, 732.6666666666666)"><rect class="cell" height="146.53333333333333" width="260.6218487394958" fill="#c7e9c0" stroke="#6B7279"/><polygon class="sidebar" transform="translate(0, 146.53333333333333)" points="0,0 12,0 12,0" fill="#6B7279" visibility="hidden"/><text font-size="12" fill="black"><tspan x="4" y="69.51666666666667">T0883:</tspan><tspan x="4" y="84.01666666666667">Internet Accessible Device</tspan></text></g><g class="technique T0886" transform="translate(0, 879.2)"><rect class="cell" height="146.53333333333333" width="260.6218487394958" fill="#c7e9c0" stroke="#6B7279"/><polygon class="sidebar" transform="translate(0, 146.53333333333333)" points="0,0 12,0 12,0" fill="#6B7279" visibility="hidden"/><text font-size="12" fill="black"><tspan x="4" y="76.76666666666667">T0886: Remote Services</tspan></text></g><g class="technique T0847" transform="translate(0, 1025.7333333333333)"><rect class="cell" height="146.53333333333333" width="260.6218487394958" fill="#c7e9c0" stroke="#6B7279"/><polygon class="sidebar" transform="translate(0, 146.53333333333333)" points="0,0 12,0 12,0" fill="#6B7279" visibility="hidden"/><text font-size="12" fill="black"><tspan x="4" y="69.51666666666667">T0847: Replication</tspan><tspan x="4" y="84.01666666666667">Through Removable Media</tspan></text></g><g class="technique T0848" transform="translate(0, 1172.2666666666667)"><rect class="cell" height="146.53333333333333" width="260.6218487394958" fill="#c7e9c0" stroke="#6B7279"/><polygon class="sidebar" transform="translate(0, 146.53333333333333)" points="0,0 12,0 12,0" fill="#6B7279" visibility="hidden"/><text font-size="12" fill="black"><tspan x="4" y="76.76666666666667">T0848: Rogue Master</tspan></text></g><g class="technique T0865" transform="translate(0, 1318.8)"><rect class="cell" height="146.53333333333333" width="260.6218487394958" fill="#c7e9c0" stroke="#6B7279"/><polygon class="sidebar" transform="translate(0, 146.53333333333333)" points="0,0 12,0 12,0" fill="#6B7279" visibility="hidden"/><text font-size="12" fill="black"><tspan x="4" y="69.51666666666667">T0865:</tspan><tspan x="4" y="84.01666666666667">Spearphishing Attachment</tspan></text></g><g class="technique T0862" transform="translate(0, 1465.3333333333333)"><rect class="cell" height="146.53333333333333" width="260.6218487394958" fill="#c7e9c0" stroke="#6B7279"/><polygon class="sidebar" transform="translate(0, 146.53333333333333)" points="0,0 12,0 12,0" fill="#6B7279" visibility="hidden"/><text font-size="12" fill="black"><tspan x="4" y="76.76666666666667">T0862: Supply Chain Compromise</tspan></text></g><g class="technique T0864" transform="translate(0, 1611.8666666666666)"><rect class="cell" height="146.53333333333333" width="260.6218487394958" fill="#c7e9c0" stroke="#6B7279"/><polygon class="sidebar" transform="translate(0, 146.53333333333333)" points="0,0 12,0 12,0" fill="#6B7279" visibility="hidden"/><text font-size="12" fill="black"><tspan x="4" y="76.76666666666667">T0864: Transient Cyber Asset</tspan></text></g><g class="technique T0860" transform="translate(0, 1758.4)"><rect class="cell" height="146.53333333333333" width="260.6218487394958" fill="#c7e9c0" stroke="#6B7279"/><polygon class="sidebar" transform="translate(0, 146.53333333333333)" points="0,0 12,0 12,0" fill="#6B7279" visibility="hidden"/><text font-size="12" fill="black"><tspan x="4" y="76.76666666666667">T0860: Wireless Compromise</tspan></text></g></g><g class="subtechniques"/><g class="tactic-label"><text font-size="12" fill="black" font-weight="bold"><tspan text-anchor="middle" x="130.3109243697479" y="76.76666666666667">Initial Access</tspan></text></g></g><g class="tactic execution" transform="translate(289.5798319327731, 0)"><g class="techniques"><g class="technique T0858" transform="translate(0, 146.53333333333333)"><rect class="cell" height="146.53333333333333" width="260.6218487394958" fill="#c7e9c0" stroke="#6B7279"/><polygon class="sidebar" transform="translate(0, 146.53333333333333)" points="0,0 12,0 12,0" fill="#6B7279" visibility="hidden"/><text font-size="12" fill="black"><tspan x="4" y="76.76666666666667">T0858: Change Operating Mode</tspan></text></g><g class="technique T0807" transform="translate(0, 293.06666666666666)"><rect class="cell" height="146.53333333333333" width="260.6218487394958" fill="#c7e9c0" stroke="#6B7279"/><polygon class="sidebar" transform="translate(0, 146.53333333333333)" points="0,0 12,0 12,0" fill="#6B7279" visibility="hidden"/><text font-size="12" fill="black"><tspan x="4" y="76.76666666666667">T0807: Command-Line Interface</tspan></text></g><g class="technique T0871" transform="translate(0, 439.6)"><rect class="cell" height="146.53333333333333" width="260.6218487394958" fill="#c7e9c0" stroke="#6B7279"/><polygon class="sidebar" transform="translate(0, 146.53333333333333)" points="0,0 12,0 12,0" fill="#6B7279" visibility="hidden"/><text font-size="12" fill="black"><tspan x="4" y="76.76666666666667">T0871: Execution through API</tspan></text></g><g class="technique T0823" transform="translate(0, 586.1333333333333)"><rect class="cell" height="146.53333333333333" width="260.6218487394958" fill="#c7e9c0" stroke="#6B7279"/><polygon class="sidebar" transform="translate(0, 146.53333333333333)" points="0,0 12,0 12,0" fill="#6B7279" visibility="hidden"/><text font-size="12" fill="black"><tspan x="4" y="69.51666666666667">T0823:</tspan><tspan x="4" y="84.01666666666667">Graphical User Interface</tspan></text></g><g class="technique T0874" transform="translate(0, 732.6666666666666)"><rect class="cell" height="146.53333333333333" width="260.6218487394958" fill="#c7e9c0" stroke="#6B7279"/><polygon class="sidebar" transform="translate(0, 146.53333333333333)" points="0,0 12,0 12,0" fill="#6B7279" visibility="hidden"/><text font-size="12" fill="black"><tspan x="4" y="76.76666666666667">T0874: Hooking</tspan></text></g><g class="technique T0821" transform="translate(0, 879.2)"><rect class="cell" height="146.53333333333333" width="260.6218487394958" fill="#c7e9c0" stroke="#6B7279"/><polygon class="sidebar" transform="translate(0, 146.53333333333333)" points="0,0 12,0 12,0" fill="#6B7279" visibility="hidden"/><text font-size="12" fill="black"><tspan x="4" y="69.51666666666667">T0821:</tspan><tspan x="4" y="84.01666666666667">Modify Controller Tasking</tspan></text></g><g class="technique T0834" transform="translate(0, 1025.7333333333333)"><rect class="cell" height="146.53333333333333" width="260.6218487394958" fill="#c7e9c0" stroke="#6B7279"/><polygon class="sidebar" transform="translate(0, 146.53333333333333)" points="0,0 12,0 12,0" fill="#6B7279" visibility="hidden"/><text font-size="12" fill="black"><tspan x="4" y="76.76666666666667">T0834: Native API</tspan></text></g><g class="technique T0853" transform="translate(0, 1172.2666666666667)"><rect class="cell" height="146.53333333333333" width="260.6218487394958" fill="#c7e9c0" stroke="#6B7279"/><polygon class="sidebar" transform="translate(0, 146.53333333333333)" points="0,0 12,0 12,0" fill="#6B7279" visibility="hidden"/><text font-size="12" fill="black"><tspan x="4" y="76.76666666666667">T0853: Scripting</tspan></text></g><g class="technique T0863" transform="translate(0, 1318.8)"><rect class="cell" height="146.53333333333333" width="260.6218487394958" fill="#c7e9c0" stroke="#6B7279"/><polygon class="sidebar" transform="translate(0, 146.53333333333333)" points="0,0 12,0 12,0" fill="#6B7279" visibility="hidden"/><text font-size="12" fill="black"><tspan x="4" y="76.76666666666667">T0863: User Execution</tspan></text></g></g><g class="subtechniques"/><g class="tactic-label"><text font-size="12" fill="black" font-weight="bold"><tspan text-anchor="middle" x="130.3109243697479" y="76.76666666666667">Execution</tspan></text></g></g><g class="tactic persistence" transform="translate(579.1596638655462, 0)"><g class="techniques"><g class="technique T0891" transform="translate(0, 146.53333333333333)"><rect class="cell" height="146.53333333333333" width="260.6218487394958" fill="#c7e9c0" stroke="#6B7279"/><polygon class="sidebar" transform="translate(0, 146.53333333333333)" points="0,0 12,0 12,0" fill="#6B7279" visibility="hidden"/><text font-size="12" fill="black"><tspan x="4" y="76.76666666666667">T0891: Hardcoded Credentials</tspan></text></g><g class="technique T0889" transform="translate(0, 293.06666666666666)"><rect class="cell" height="146.53333333333333" width="260.6218487394958" fill="#c7e9c0" stroke="#6B7279"/><polygon class="sidebar" transform="translate(0, 146.53333333333333)" points="0,0 12,0 12,0" fill="#6B7279" visibility="hidden"/><text font-size="12" fill="black"><tspan x="4" y="76.76666666666667">T0889: Modify Program</tspan></text></g><g class="technique T0839" transform="translate(0, 439.6)"><rect class="cell" height="146.53333333333333" width="260.6218487394958" fill="#c7e9c0" stroke="#6B7279"/><polygon class="sidebar" transform="translate(0, 146.53333333333333)" points="0,0 12,0 12,0" fill="#6B7279" visibility="hidden"/><text font-size="12" fill="black"><tspan x="4" y="76.76666666666667">T0839: Module Firmware</tspan></text></g><g class="technique T0873" transform="translate(0, 586.1333333333333)"><rect class="cell" height="146.53333333333333" width="260.6218487394958" fill="#c7e9c0" stroke="#6B7279"/><polygon class="sidebar" transform="translate(0, 146.53333333333333)" points="0,0 12,0 12,0" fill="#6B7279" visibility="hidden"/><text font-size="12" fill="black"><tspan x="4" y="76.76666666666667">T0873: Project File Infection</tspan></text></g><g class="technique T0857" transform="translate(0, 732.6666666666666)"><rect class="cell" height="146.53333333333333" width="260.6218487394958" fill="#c7e9c0" stroke="#6B7279"/><polygon class="sidebar" transform="translate(0, 146.53333333333333)" points="0,0 12,0 12,0" fill="#6B7279" visibility="hidden"/><text font-size="12" fill="black"><tspan x="4" y="76.76666666666667">T0857: System Firmware</tspan></text></g><g class="technique T0859" transform="translate(0, 879.2)"><rect class="cell" height="146.53333333333333" width="260.6218487394958" fill="#c7e9c0" stroke="#6B7279"/><polygon class="sidebar" transform="translate(0, 146.53333333333333)" points="0,0 12,0 12,0" fill="#6B7279" visibility="hidden"/><text font-size="12" fill="black"><tspan x="4" y="76.76666666666667">T0859: Valid Accounts</tspan></text></g></g><g class="subtechniques"/><g class="tactic-label"><text font-size="12" fill="black" font-weight="bold"><tspan text-anchor="middle" x="130.3109243697479" y="76.76666666666667">Persistence</tspan></text></g></g><g class="tactic privilege-escalation" transform="translate(868.7394957983194, 0)"><g class="techniques"><g class="technique T0890" transform="translate(0, 146.53333333333333)"><rect class="cell" height="146.53333333333333" width="260.6218487394958" fill="#c7e9c0" stroke="#6B7279"/><polygon class="sidebar" transform="translate(0, 146.53333333333333)" points="0,0 12,0 12,0" fill="#6B7279" visibility="hidden"/><text font-size="12" fill="black"><tspan x="4" y="69.51666666666667">T0890: Exploitation</tspan><tspan x="4" y="84.01666666666667">for Privilege Escalation</tspan></text></g><g class="technique T0874" transform="translate(0, 293.06666666666666)"><rect class="cell" height="146.53333333333333" width="260.6218487394958" fill="#c7e9c0" stroke="#6B7279"/><polygon class="sidebar" transform="translate(0, 146.53333333333333)" points="0,0 12,0 12,0" fill="#6B7279" visibility="hidden"/><text font-size="12" fill="black"><tspan x="4" y="76.76666666666667">T0874: Hooking</tspan></text></g></g><g class="subtechniques"/><g class="tactic-label"><text font-size="12" fill="black" font-weight="bold"><tspan text-anchor="middle" x="130.3109243697479" y="76.76666666666667">Privilege Escalation</tspan></text></g></g><g class="tactic evasion" transform="translate(1158.3193277310925, 0)"><g class="techniques"><g class="technique T0858" transform="translate(0, 146.53333333333333)"><rect class="cell" height="146.53333333333333" width="260.6218487394958" fill="#c7e9c0" stroke="#6B7279"/><polygon class="sidebar" transform="translate(0, 146.53333333333333)" points="0,0 12,0 12,0" fill="#6B7279" visibility="hidden"/><text font-size="12" fill="black"><tspan x="4" y="76.76666666666667">T0858: Change Operating Mode</tspan></text></g><g class="technique T0820" transform="translate(0, 293.06666666666666)"><rect class="cell" height="146.53333333333333" width="260.6218487394958" fill="#c7e9c0" stroke="#6B7279"/><polygon class="sidebar" transform="translate(0, 146.53333333333333)" points="0,0 12,0 12,0" fill="#6B7279" visibility="hidden"/><text font-size="12" fill="black"><tspan x="4" y="69.51666666666667">T0820:</tspan><tspan x="4" y="84.01666666666667">Exploitation for Evasion</tspan></text></g><g class="technique T0872" transform="translate(0, 439.6)"><rect class="cell" height="146.53333333333333" width="260.6218487394958" fill="#c7e9c0" stroke="#6B7279"/><polygon class="sidebar" transform="translate(0, 146.53333333333333)" points="0,0 12,0 12,0" fill="#6B7279" visibility="hidden"/><text font-size="12" fill="black"><tspan x="4" y="69.51666666666667">T0872:</tspan><tspan x="4" y="84.01666666666667">Indicator Removal on Host</tspan></text></g><g class="technique T0849" transform="translate(0, 586.1333333333333)"><rect class="cell" height="146.53333333333333" width="260.6218487394958" fill="#c7e9c0" stroke="#6B7279"/><polygon class="sidebar" transform="translate(0, 146.53333333333333)" points="0,0 12,0 12,0" fill="#6B7279" visibility="hidden"/><text font-size="12" fill="black"><tspan x="4" y="76.76666666666667">T0849: Masquerading</tspan></text></g><g class="technique T0851" transform="translate(0, 732.6666666666666)"><rect class="cell" height="146.53333333333333" width="260.6218487394958" fill="#c7e9c0" stroke="#6B7279"/><polygon class="sidebar" transform="translate(0, 146.53333333333333)" points="0,0 12,0 12,0" fill="#6B7279" visibility="hidden"/><text font-size="12" fill="black"><tspan x="4" y="76.76666666666667">T0851: Rootkit</tspan></text></g><g class="technique T0856" transform="translate(0, 879.2)"><rect class="cell" height="146.53333333333333" width="260.6218487394958" fill="#c7e9c0" stroke="#6B7279"/><polygon class="sidebar" transform="translate(0, 146.53333333333333)" points="0,0 12,0 12,0" fill="#6B7279" visibility="hidden"/><text font-size="12" fill="black"><tspan x="4" y="76.76666666666667">T0856: Spoof Reporting Message</tspan></text></g></g><g class="subtechniques"/><g class="tactic-label"><text font-size="12" fill="black" font-weight="bold"><tspan text-anchor="middle" x="130.3109243697479" y="76.76666666666667">Evasion</tspan></text></g></g><g class="tactic discovery" transform="translate(1447.8991596638657, 0)"><g class="techniques"><g class="technique T0840" transform="translate(0, 146.53333333333333)"><rect class="cell" height="146.53333333333333" width="260.6218487394958" fill="#c7e9c0" stroke="#6B7279"/><polygon class="sidebar" transform="translate(0, 146.53333333333333)" points="0,0 12,0 12,0" fill="#6B7279" visibility="hidden"/><text font-size="12" fill="black"><tspan x="4" y="69.51666666666667">T0840:</tspan><tspan x="4" y="84.01666666666667">Network Connection Enumeration</tspan></text></g><g class="technique T0842" transform="translate(0, 293.06666666666666)"><rect class="cell" height="146.53333333333333" width="260.6218487394958" fill="#c7e9c0" stroke="#6B7279"/><polygon class="sidebar" transform="translate(0, 146.53333333333333)" points="0,0 12,0 12,0" fill="#6B7279" visibility="hidden"/><text font-size="12" fill="black"><tspan x="4" y="76.76666666666667">T0842: Network Sniffing</tspan></text></g><g class="technique T0846" transform="translate(0, 439.6)"><rect class="cell" height="146.53333333333333" width="260.6218487394958" fill="#c7e9c0" stroke="#6B7279"/><polygon class="sidebar" transform="translate(0, 146.53333333333333)" points="0,0 12,0 12,0" fill="#6B7279" visibility="hidden"/><text font-size="12" fill="black"><tspan x="4" y="76.76666666666667">T0846: Remote System Discovery</tspan></text></g><g class="technique T0888" transform="translate(0, 586.1333333333333)"><rect class="cell" height="146.53333333333333" width="260.6218487394958" fill="#c7e9c0" stroke="#6B7279"/><polygon class="sidebar" transform="translate(0, 146.53333333333333)" points="0,0 12,0 12,0" fill="#6B7279" visibility="hidden"/><text font-size="12" fill="black"><tspan x="4" y="69.51666666666667">T0888: Remote</tspan><tspan x="4" y="84.01666666666667">System Information Discovery</tspan></text></g><g class="technique T0887" transform="translate(0, 732.6666666666666)"><rect class="cell" height="146.53333333333333" width="260.6218487394958" fill="#c7e9c0" stroke="#6B7279"/><polygon class="sidebar" transform="translate(0, 146.53333333333333)" points="0,0 12,0 12,0" fill="#6B7279" visibility="hidden"/><text font-size="12" fill="black"><tspan x="4" y="76.76666666666667">T0887: Wireless Sniffing</tspan></text></g></g><g class="subtechniques"/><g class="tactic-label"><text font-size="12" fill="black" font-weight="bold"><tspan text-anchor="middle" x="130.3109243697479" y="76.76666666666667">Discovery</tspan></text></g></g><g class="tactic lateral-movement" transform="translate(1737.4789915966387, 0)"><g class="techniques"><g class="technique T0812" transform="translate(0, 146.53333333333333)"><rect class="cell" height="146.53333333333333" width="260.6218487394958" fill="#c7e9c0" stroke="#6B7279"/><polygon class="sidebar" transform="translate(0, 146.53333333333333)" points="0,0 12,0 12,0" fill="#6B7279" visibility="hidden"/><text font-size="12" fill="black"><tspan x="4" y="76.76666666666667">T0812: Default Credentials</tspan></text></g><g class="technique T0866" transform="translate(0, 293.06666666666666)"><rect class="cell" height="146.53333333333333" width="260.6218487394958" fill="#c7e9c0" stroke="#6B7279"/><polygon class="sidebar" transform="translate(0, 146.53333333333333)" points="0,0 12,0 12,0" fill="#6B7279" visibility="hidden"/><text font-size="12" fill="black"><tspan x="4" y="69.51666666666667">T0866: Exploitation</tspan><tspan x="4" y="84.01666666666667">of Remote Services</tspan></text></g><g class="technique T0891" transform="translate(0, 439.6)"><rect class="cell" height="146.53333333333333" width="260.6218487394958" fill="#c7e9c0" stroke="#6B7279"/><polygon class="sidebar" transform="translate(0, 146.53333333333333)" points="0,0 12,0 12,0" fill="#6B7279" visibility="hidden"/><text font-size="12" fill="black"><tspan x="4" y="76.76666666666667">T0891: Hardcoded Credentials</tspan></text></g><g class="technique T0867" transform="translate(0, 586.1333333333333)"><rect class="cell" height="146.53333333333333" width="260.6218487394958" fill="#c7e9c0" stroke="#6B7279"/><polygon class="sidebar" transform="translate(0, 146.53333333333333)" points="0,0 12,0 12,0" fill="#6B7279" visibility="hidden"/><text font-size="12" fill="black"><tspan x="4" y="76.76666666666667">T0867: Lateral Tool Transfer</tspan></text></g><g class="technique T0843" transform="translate(0, 732.6666666666666)"><rect class="cell" height="146.53333333333333" width="260.6218487394958" fill="#c7e9c0" stroke="#6B7279"/><polygon class="sidebar" transform="translate(0, 146.53333333333333)" points="0,0 12,0 12,0" fill="#6B7279" visibility="hidden"/><text font-size="12" fill="black"><tspan x="4" y="76.76666666666667">T0843: Program Download</tspan></text></g><g class="technique T0886" transform="translate(0, 879.2)"><rect class="cell" height="146.53333333333333" width="260.6218487394958" fill="#c7e9c0" stroke="#6B7279"/><polygon class="sidebar" transform="translate(0, 146.53333333333333)" points="0,0 12,0 12,0" fill="#6B7279" visibility="hidden"/><text font-size="12" fill="black"><tspan x="4" y="76.76666666666667">T0886: Remote Services</tspan></text></g><g class="technique T0859" transform="translate(0, 1025.7333333333333)"><rect class="cell" height="146.53333333333333" width="260.6218487394958" fill="#c7e9c0" stroke="#6B7279"/><polygon class="sidebar" transform="translate(0, 146.53333333333333)" points="0,0 12,0 12,0" fill="#6B7279" visibility="hidden"/><text font-size="12" fill="black"><tspan x="4" y="76.76666666666667">T0859: Valid Accounts</tspan></text></g></g><g class="subtechniques"/><g class="tactic-label"><text font-size="12" fill="black" font-weight="bold"><tspan text-anchor="middle" x="130.3109243697479" y="76.76666666666667">Lateral Movement</tspan></text></g></g><g class="tactic collection" transform="translate(2027.0588235294117, 0)"><g class="techniques"><g class="technique T0830" transform="translate(0, 146.53333333333333)"><rect class="cell" height="146.53333333333333" width="260.6218487394958" fill="#c7e9c0" stroke="#6B7279"/><polygon class="sidebar" transform="translate(0, 146.53333333333333)" points="0,0 12,0 12,0" fill="#6B7279" visibility="hidden"/><text font-size="12" fill="black"><tspan x="4" y="76.76666666666667">T0830: Adversary-in-the-Middle</tspan></text></g><g class="technique T0802" transform="translate(0, 293.06666666666666)"><rect class="cell" height="146.53333333333333" width="260.6218487394958" fill="#c7e9c0" stroke="#6B7279"/><polygon class="sidebar" transform="translate(0, 146.53333333333333)" points="0,0 12,0 12,0" fill="#6B7279" visibility="hidden"/><text font-size="12" fill="black"><tspan x="4" y="76.76666666666667">T0802: Automated Collection</tspan></text></g><g class="technique T0811" transform="translate(0, 439.6)"><rect class="cell" height="146.53333333333333" width="260.6218487394958" fill="#c7e9c0" stroke="#6B7279"/><polygon class="sidebar" transform="translate(0, 146.53333333333333)" points="0,0 12,0 12,0" fill="#6B7279" visibility="hidden"/><text font-size="12" fill="black"><tspan x="4" y="69.51666666666667">T0811: Data</tspan><tspan x="4" y="84.01666666666667">from Information Repositories</tspan></text></g><g class="technique T0893" transform="translate(0, 586.1333333333333)"><rect class="cell" height="146.53333333333333" width="260.6218487394958" fill="#c7e9c0" stroke="#6B7279"/><polygon class="sidebar" transform="translate(0, 146.53333333333333)" points="0,0 12,0 12,0" fill="#6B7279" visibility="hidden"/><text font-size="12" fill="black"><tspan x="4" y="76.76666666666667">T0893: Data from Local System</tspan></text></g><g class="technique T0868" transform="translate(0, 732.6666666666666)"><rect class="cell" height="146.53333333333333" width="260.6218487394958" fill="#c7e9c0" stroke="#6B7279"/><polygon class="sidebar" transform="translate(0, 146.53333333333333)" points="0,0 12,0 12,0" fill="#6B7279" visibility="hidden"/><text font-size="12" fill="black"><tspan x="4" y="76.76666666666667">T0868: Detect Operating Mode</tspan></text></g><g class="technique T0877" transform="translate(0, 879.2)"><rect class="cell" height="146.53333333333333" width="260.6218487394958" fill="#c7e9c0" stroke="#6B7279"/><polygon class="sidebar" transform="translate(0, 146.53333333333333)" points="0,0 12,0 12,0" fill="#6B7279" visibility="hidden"/><text font-size="12" fill="black"><tspan x="4" y="76.76666666666667">T0877: I/O Image</tspan></text></g><g class="technique T0801" transform="translate(0, 1025.7333333333333)"><rect class="cell" height="146.53333333333333" width="260.6218487394958" fill="#c7e9c0" stroke="#6B7279"/><polygon class="sidebar" transform="translate(0, 146.53333333333333)" points="0,0 12,0 12,0" fill="#6B7279" visibility="hidden"/><text font-size="12" fill="black"><tspan x="4" y="76.76666666666667">T0801: Monitor Process State</tspan></text></g><g class="technique T0861" transform="translate(0, 1172.2666666666667)"><rect class="cell" height="146.53333333333333" width="260.6218487394958" fill="#c7e9c0" stroke="#6B7279"/><polygon class="sidebar" transform="translate(0, 146.53333333333333)" points="0,0 12,0 12,0" fill="#6B7279" visibility="hidden"/><text font-size="12" fill="black"><tspan x="4" y="69.51666666666667">T0861:</tspan><tspan x="4" y="84.01666666666667">Point &amp; Tag Identification</tspan></text></g><g class="technique T0845" transform="translate(0, 1318.8)"><rect class="cell" height="146.53333333333333" width="260.6218487394958" fill="#c7e9c0" stroke="#6B7279"/><polygon class="sidebar" transform="translate(0, 146.53333333333333)" points="0,0 12,0 12,0" fill="#6B7279" visibility="hidden"/><text font-size="12" fill="black"><tspan x="4" y="76.76666666666667">T0845: Program Upload</tspan></text></g><g class="technique T0852" transform="translate(0, 1465.3333333333333)"><rect class="cell" height="146.53333333333333" width="260.6218487394958" fill="#c7e9c0" stroke="#6B7279"/><polygon class="sidebar" transform="translate(0, 146.53333333333333)" points="0,0 12,0 12,0" fill="#6B7279" visibility="hidden"/><text font-size="12" fill="black"><tspan x="4" y="76.76666666666667">T0852: Screen Capture</tspan></text></g><g class="technique T0887" transform="translate(0, 1611.8666666666666)"><rect class="cell" height="146.53333333333333" width="260.6218487394958" fill="#c7e9c0" stroke="#6B7279"/><polygon class="sidebar" transform="translate(0, 146.53333333333333)" points="0,0 12,0 12,0" fill="#6B7279" visibility="hidden"/><text font-size="12" fill="black"><tspan x="4" y="76.76666666666667">T0887: Wireless Sniffing</tspan></text></g></g><g class="subtechniques"/><g class="tactic-label"><text font-size="12" fill="black" font-weight="bold"><tspan text-anchor="middle" x="130.3109243697479" y="76.76666666666667">Collection</tspan></text></g></g><g class="tactic command-and-control" transform="translate(2316.638655462185, 0)"><g class="techniques"><g class="technique T0885" transform="translate(0, 146.53333333333333)"><rect class="cell" height="146.53333333333333" width="260.6218487394958" fill="#c7e9c0" stroke="#6B7279"/><polygon class="sidebar" transform="translate(0, 146.53333333333333)" points="0,0 12,0 12,0" fill="#6B7279" visibility="hidden"/><text font-size="12" fill="black"><tspan x="4" y="76.76666666666667">T0885: Commonly Used Port</tspan></text></g><g class="technique T0884" transform="translate(0, 293.06666666666666)"><rect class="cell" height="146.53333333333333" width="260.6218487394958" fill="#c7e9c0" stroke="#6B7279"/><polygon class="sidebar" transform="translate(0, 146.53333333333333)" points="0,0 12,0 12,0" fill="#6B7279" visibility="hidden"/><text font-size="12" fill="black"><tspan x="4" y="76.76666666666667">T0884: Connection Proxy</tspan></text></g><g class="technique T0869" transform="translate(0, 439.6)"><rect class="cell" height="146.53333333333333" width="260.6218487394958" fill="#c7e9c0" stroke="#6B7279"/><polygon class="sidebar" transform="translate(0, 146.53333333333333)" points="0,0 12,0 12,0" fill="#6B7279" visibility="hidden"/><text font-size="12" fill="black"><tspan x="4" y="69.51666666666667">T0869: Standard</tspan><tspan x="4" y="84.01666666666667">Application Layer Protocol</tspan></text></g></g><g class="subtechniques"/><g class="tactic-label"><text font-size="12" fill="black" font-weight="bold"><tspan text-anchor="middle" x="130.3109243697479" y="76.76666666666667">Command and Control</tspan></text></g></g><g class="tactic inhibit-response-function" transform="translate(2606.218487394958, 0)"><g class="techniques"><g class="technique T0800" transform="translate(0, 146.53333333333333)"><rect class="cell" height="146.53333333333333" width="260.6218487394958" fill="#c7e9c0" stroke="#6B7279"/><polygon class="sidebar" transform="translate(0, 146.53333333333333)" points="0,0 12,0 12,0" fill="#6B7279" visibility="hidden"/><text font-size="12" fill="black"><tspan x="4" y="69.51666666666667">T0800:</tspan><tspan x="4" y="84.01666666666667">Activate Firmware Update Mode</tspan></text></g><g class="technique T0878" transform="translate(0, 293.06666666666666)"><rect class="cell" height="146.53333333333333" width="260.6218487394958" fill="#c7e9c0" stroke="#6B7279"/><polygon class="sidebar" transform="translate(0, 146.53333333333333)" points="0,0 12,0 12,0" fill="#6B7279" visibility="hidden"/><text font-size="12" fill="black"><tspan x="4" y="76.76666666666667">T0878: Alarm Suppression</tspan></text></g><g class="technique T0803" transform="translate(0, 439.6)"><rect class="cell" height="146.53333333333333" width="260.6218487394958" fill="#c7e9c0" stroke="#6B7279"/><polygon class="sidebar" transform="translate(0, 146.53333333333333)" points="0,0 12,0 12,0" fill="#6B7279" visibility="hidden"/><text font-size="12" fill="black"><tspan x="4" y="76.76666666666667">T0803: Block Command Message</tspan></text></g><g class="technique T0804" transform="translate(0, 586.1333333333333)"><rect class="cell" height="146.53333333333333" width="260.6218487394958" fill="#c7e9c0" stroke="#6B7279"/><polygon class="sidebar" transform="translate(0, 146.53333333333333)" points="0,0 12,0 12,0" fill="#6B7279" visibility="hidden"/><text font-size="12" fill="black"><tspan x="4" y="76.76666666666667">T0804: Block Reporting Message</tspan></text></g><g class="technique T0805" transform="translate(0, 732.6666666666666)"><rect class="cell" height="146.53333333333333" width="260.6218487394958" fill="#c7e9c0" stroke="#6B7279"/><polygon class="sidebar" transform="translate(0, 146.53333333333333)" points="0,0 12,0 12,0" fill="#6B7279" visibility="hidden"/><text font-size="12" fill="black"><tspan x="4" y="76.76666666666667">T0805: Block Serial COM</tspan></text></g><g class="technique T0892" transform="translate(0, 879.2)"><rect class="cell" height="146.53333333333333" width="260.6218487394958" fill="#c7e9c0" stroke="#6B7279"/><polygon class="sidebar" transform="translate(0, 146.53333333333333)" points="0,0 12,0 12,0" fill="#6B7279" visibility="hidden"/><text font-size="12" fill="black"><tspan x="4" y="76.76666666666667">T0892: Change Credential</tspan></text></g><g class="technique T0809" transform="translate(0, 1025.7333333333333)"><rect class="cell" height="146.53333333333333" width="260.6218487394958" fill="#c7e9c0" stroke="#6B7279"/><polygon class="sidebar" transform="translate(0, 146.53333333333333)" points="0,0 12,0 12,0" fill="#6B7279" visibility="hidden"/><text font-size="12" fill="black"><tspan x="4" y="76.76666666666667">T0809: Data Destruction</tspan></text></g><g class="technique T0814" transform="translate(0, 1172.2666666666667)"><rect class="cell" height="146.53333333333333" width="260.6218487394958" fill="#c7e9c0" stroke="#6B7279"/><polygon class="sidebar" transform="translate(0, 146.53333333333333)" points="0,0 12,0 12,0" fill="#6B7279" visibility="hidden"/><text font-size="12" fill="black"><tspan x="4" y="76.76666666666667">T0814: Denial of Service</tspan></text></g><g class="technique T0816" transform="translate(0, 1318.8)"><rect class="cell" height="146.53333333333333" width="260.6218487394958" fill="#c7e9c0" stroke="#6B7279"/><polygon class="sidebar" transform="translate(0, 146.53333333333333)" points="0,0 12,0 12,0" fill="#6B7279" visibility="hidden"/><text font-size="12" fill="black"><tspan x="4" y="76.76666666666667">T0816: Device Restart/Shutdown</tspan></text></g><g class="technique T0835" transform="translate(0, 1465.3333333333333)"><rect class="cell" height="146.53333333333333" width="260.6218487394958" fill="#c7e9c0" stroke="#6B7279"/><polygon class="sidebar" transform="translate(0, 146.53333333333333)" points="0,0 12,0 12,0" fill="#6B7279" visibility="hidden"/><text font-size="12" fill="black"><tspan x="4" y="76.76666666666667">T0835: Manipulate I/O Image</tspan></text></g><g class="technique T0838" transform="translate(0, 1611.8666666666666)"><rect class="cell" height="146.53333333333333" width="260.6218487394958" fill="#c7e9c0" stroke="#6B7279"/><polygon class="sidebar" transform="translate(0, 146.53333333333333)" points="0,0 12,0 12,0" fill="#6B7279" visibility="hidden"/><text font-size="12" fill="black"><tspan x="4" y="76.76666666666667">T0838: Modify Alarm Settings</tspan></text></g><g class="technique T0851" transform="translate(0, 1758.4)"><rect class="cell" height="146.53333333333333" width="260.6218487394958" fill="#c7e9c0" stroke="#6B7279"/><polygon class="sidebar" transform="translate(0, 146.53333333333333)" points="0,0 12,0 12,0" fill="#6B7279" visibility="hidden"/><text font-size="12" fill="black"><tspan x="4" y="76.76666666666667">T0851: Rootkit</tspan></text></g><g class="technique T0881" transform="translate(0, 1904.9333333333334)"><rect class="cell" height="146.53333333333333" width="260.6218487394958" fill="#c7e9c0" stroke="#6B7279"/><polygon class="sidebar" transform="translate(0, 146.53333333333333)" points="0,0 12,0 12,0" fill="#6B7279" visibility="hidden"/><text font-size="12" fill="black"><tspan x="4" y="76.76666666666667">T0881: Service Stop</tspan></text></g><g class="technique T0857" transform="translate(0, 2051.4666666666667)"><rect class="cell" height="146.53333333333333" width="260.6218487394958" fill="#c7e9c0" stroke="#6B7279"/><polygon class="sidebar" transform="translate(0, 146.53333333333333)" points="0,0 12,0 12,0" fill="#6B7279" visibility="hidden"/><text font-size="12" fill="black"><tspan x="4" y="76.76666666666667">T0857: System Firmware</tspan></text></g></g><g class="subtechniques"/><g class="tactic-label"><text font-size="12" fill="black" font-weight="bold"><tspan text-anchor="middle" x="130.3109243697479" y="76.76666666666667">Inhibit Response Function</tspan></text></g></g><g class="tactic impair-process-control" transform="translate(2895.7983193277314, 0)"><g class="techniques"><g class="technique T0806" transform="translate(0, 146.53333333333333)"><rect class="cell" height="146.53333333333333" width="260.6218487394958" fill="#c7e9c0" stroke="#6B7279"/><polygon class="sidebar" transform="translate(0, 146.53333333333333)" points="0,0 12,0 12,0" fill="#6B7279" visibility="hidden"/><text font-size="12" fill="black"><tspan x="4" y="76.76666666666667">T0806: Brute Force I/O</tspan></text></g><g class="technique T0836" transform="translate(0, 293.06666666666666)"><rect class="cell" height="146.53333333333333" width="260.6218487394958" fill="#c7e9c0" stroke="#6B7279"/><polygon class="sidebar" transform="translate(0, 146.53333333333333)" points="0,0 12,0 12,0" fill="#6B7279" visibility="hidden"/><text font-size="12" fill="black"><tspan x="4" y="76.76666666666667">T0836: Modify Parameter</tspan></text></g><g class="technique T0839" transform="translate(0, 439.6)"><rect class="cell" height="146.53333333333333" width="260.6218487394958" fill="#c7e9c0" stroke="#6B7279"/><polygon class="sidebar" transform="translate(0, 146.53333333333333)" points="0,0 12,0 12,0" fill="#6B7279" visibility="hidden"/><text font-size="12" fill="black"><tspan x="4" y="76.76666666666667">T0839: Module Firmware</tspan></text></g><g class="technique T0856" transform="translate(0, 586.1333333333333)"><rect class="cell" height="146.53333333333333" width="260.6218487394958" fill="#c7e9c0" stroke="#6B7279"/><polygon class="sidebar" transform="translate(0, 146.53333333333333)" points="0,0 12,0 12,0" fill="#6B7279" visibility="hidden"/><text font-size="12" fill="black"><tspan x="4" y="76.76666666666667">T0856: Spoof Reporting Message</tspan></text></g><g class="technique T0855" transform="translate(0, 732.6666666666666)"><rect class="cell" height="146.53333333333333" width="260.6218487394958" fill="#c7e9c0" stroke="#6B7279"/><polygon class="sidebar" transform="translate(0, 146.53333333333333)" points="0,0 12,0 12,0" fill="#6B7279" visibility="hidden"/><text font-size="12" fill="black"><tspan x="4" y="69.51666666666667">T0855:</tspan><tspan x="4" y="84.01666666666667">Unauthorized Command Message</tspan></text></g></g><g class="subtechniques"/><g class="tactic-label"><text font-size="12" fill="black" font-weight="bold"><tspan text-anchor="middle" x="130.3109243697479" y="76.76666666666667">Impair Process Control</tspan></text></g></g><g class="tactic impact" transform="translate(3185.378151260504, 0)"><g class="techniques"><g class="technique T0879" transform="translate(0, 146.53333333333333)"><rect class="cell" height="146.53333333333333" width="260.6218487394958" fill="#c7e9c0" stroke="#6B7279"/><polygon class="sidebar" transform="translate(0, 146.53333333333333)" points="0,0 12,0 12,0" fill="#6B7279" visibility="hidden"/><text font-size="12" fill="black"><tspan x="4" y="76.76666666666667">T0879: Damage to Property</tspan></text></g><g class="technique T0813" transform="translate(0, 293.06666666666666)"><rect class="cell" height="146.53333333333333" width="260.6218487394958" fill="#c7e9c0" stroke="#6B7279"/><polygon class="sidebar" transform="translate(0, 146.53333333333333)" points="0,0 12,0 12,0" fill="#6B7279" visibility="hidden"/><text font-size="12" fill="black"><tspan x="4" y="76.76666666666667">T0813: Denial of Control</tspan></text></g><g class="technique T0815" transform="translate(0, 439.6)"><rect class="cell" height="146.53333333333333" width="260.6218487394958" fill="#c7e9c0" stroke="#6B7279"/><polygon class="sidebar" transform="translate(0, 146.53333333333333)" points="0,0 12,0 12,0" fill="#6B7279" visibility="hidden"/><text font-size="12" fill="black"><tspan x="4" y="76.76666666666667">T0815: Denial of View</tspan></text></g><g class="technique T0826" transform="translate(0, 586.1333333333333)"><rect class="cell" height="146.53333333333333" width="260.6218487394958" fill="#c7e9c0" stroke="#6B7279"/><polygon class="sidebar" transform="translate(0, 146.53333333333333)" points="0,0 12,0 12,0" fill="#6B7279" visibility="hidden"/><text font-size="12" fill="black"><tspan x="4" y="76.76666666666667">T0826: Loss of Availability</tspan></text></g><g class="technique T0827" transform="translate(0, 732.6666666666666)"><rect class="cell" height="146.53333333333333" width="260.6218487394958" fill="#c7e9c0" stroke="#6B7279"/><polygon class="sidebar" transform="translate(0, 146.53333333333333)" points="0,0 12,0 12,0" fill="#6B7279" visibility="hidden"/><text font-size="12" fill="black"><tspan x="4" y="76.76666666666667">T0827: Loss of Control</tspan></text></g><g class="technique T0828" transform="translate(0, 879.2)"><rect class="cell" height="146.53333333333333" width="260.6218487394958" fill="#c7e9c0" stroke="#6B7279"/><polygon class="sidebar" transform="translate(0, 146.53333333333333)" points="0,0 12,0 12,0" fill="#6B7279" visibility="hidden"/><text font-size="12" fill="black"><tspan x="4" y="69.51666666666667">T0828: Loss</tspan><tspan x="4" y="84.01666666666667">of Productivity and Revenue</tspan></text></g><g class="technique T0837" transform="translate(0, 1025.7333333333333)"><rect class="cell" height="146.53333333333333" width="260.6218487394958" fill="#c7e9c0" stroke="#6B7279"/><polygon class="sidebar" transform="translate(0, 146.53333333333333)" points="0,0 12,0 12,0" fill="#6B7279" visibility="hidden"/><text font-size="12" fill="black"><tspan x="4" y="76.76666666666667">T0837: Loss of Protection</tspan></text></g><g class="technique T0880" transform="translate(0, 1172.2666666666667)"><rect class="cell" height="146.53333333333333" width="260.6218487394958" fill="#c7e9c0" stroke="#6B7279"/><polygon class="sidebar" transform="translate(0, 146.53333333333333)" points="0,0 12,0 12,0" fill="#6B7279" visibility="hidden"/><text font-size="12" fill="black"><tspan x="4" y="76.76666666666667">T0880: Loss of Safety</tspan></text></g><g class="technique T0829" transform="translate(0, 1318.8)"><rect class="cell" height="146.53333333333333" width="260.6218487394958" fill="#c7e9c0" stroke="#6B7279"/><polygon class="sidebar" transform="translate(0, 146.53333333333333)" points="0,0 12,0 12,0" fill="#6B7279" visibility="hidden"/><text font-size="12" fill="black"><tspan x="4" y="76.76666666666667">T0829: Loss of View</tspan></text></g><g class="technique T0831" transform="translate(0, 1465.3333333333333)"><rect class="cell" height="146.53333333333333" width="260.6218487394958" fill="#c7e9c0" stroke="#6B7279"/><polygon class="sidebar" transform="translate(0, 146.53333333333333)" points="0,0 12,0 12,0" fill="#6B7279" visibility="hidden"/><text font-size="12" fill="black"><tspan x="4" y="76.76666666666667">T0831: Manipulation of Control</tspan></text></g><g class="technique T0832" transform="translate(0, 1611.8666666666666)"><rect class="cell" height="146.53333333333333" width="260.6218487394958" fill="#c7e9c0" stroke="#6B7279"/><polygon class="sidebar" transform="translate(0, 146.53333333333333)" points="0,0 12,0 12,0" fill="#6B7279" visibility="hidden"/><text font-size="12" fill="black"><tspan x="4" y="76.76666666666667">T0832: Manipulation of View</tspan></text></g><g class="technique T0882" transform="translate(0, 1758.4)"><rect class="cell" height="146.53333333333333" width="260.6218487394958" fill="#c7e9c0" stroke="#6B7279"/><polygon class="sidebar" transform="translate(0, 146.53333333333333)" points="0,0 12,0 12,0" fill="#6B7279" visibility="hidden"/><text font-size="12" fill="black"><tspan x="4" y="69.51666666666667">T0882: Theft</tspan><tspan x="4" y="84.01666666666667">of Operational Information</tspan></text></g></g><g class="subtechniques"/><g class="tactic-label"><text font-size="12" fill="black" font-weight="bold"><tspan text-anchor="middle" x="130.3109243697479" y="76.76666666666667">Impact</tspan></text></g></g></g></g></g></svg>